<?xml version="1.0" standalone="no"?>
<!DOCTYPE svg PUBLIC "-//W3C//DTD SVG 20010904//EN"
 "http://www.w3.org/TR/2001/REC-SVG-20010904/DTD/svg10.dtd">
<svg version="1.0" xmlns="http://www.w3.org/2000/svg"
 width="500.000000pt" height="500.000000pt" viewBox="0 0 500.000000 500.000000"
 preserveAspectRatio="xMidYMid meet">
<metadata>
Created by potrace 1.11, written by Peter Selinger 2001-2013
</metadata>
<g transform="translate(0.000000,500.000000) scale(0.100000,-0.100000)"
fill="#000000" stroke="none">
<path d="M1518 4585 c-2 -2 -48 -6 -103 -9 -130 -7 -186 -13 -320 -37 -459
-81 -770 -248 -889 -477 -78 -151 -137 -381 -171 -667 -3 -27 -8 -63 -10 -80
-27 -206 -27 -895 0 -1255 15 -210 48 -532 60 -600 1 -8 6 -40 10 -70 3 -30
17 -120 31 -200 24 -147 28 -165 38 -210 3 -14 8 -36 10 -50 41 -224 132 -369
307 -485 179 -120 402 -165 520 -105 73 38 131 115 122 163 -3 12 -21 46 -41
74 -20 29 -60 85 -88 125 -104 147 -142 246 -160 418 -10 93 -3 353 12 470 4
30 8 64 9 75 3 25 14 93 20 125 3 14 7 39 10 55 17 101 51 213 52 173 1 -12
16 -106 29 -173 13 -70 48 -223 95 -410 28 -110 52 -207 54 -215 2 -8 8 -33
13 -55 6 -22 13 -51 16 -65 3 -14 8 -36 11 -50 20 -84 54 -276 60 -342 l7 -76
86 62 c93 67 92 66 106 184 6 55 11 85 26 192 9 63 14 101 26 206 7 56 11 59
96 89 35 13 36 13 32 -8 -3 -17 -62 -305 -79 -387 -2 -8 -11 -50 -20 -94 -9
-43 -14 -81 -10 -84 3 -3 18 4 33 15 19 14 29 33 34 64 3 24 9 60 12 79 28
177 66 425 66 431 0 6 103 69 114 69 2 0 -5 -42 -16 -92 -11 -51 -21 -104 -24
-118 -3 -14 -20 -101 -40 -194 -19 -93 -33 -170 -31 -172 1 -2 15 7 30 19 25
20 29 34 53 187 14 91 27 176 29 190 2 14 7 45 10 70 4 25 9 52 10 60 2 8 4
24 4 35 1 23 38 48 94 63 35 10 37 9 32 -11 -2 -12 -20 -92 -40 -177 -19 -85
-37 -164 -39 -175 -2 -11 -9 -40 -15 -65 -22 -99 -22 -102 2 -94 35 10 45 25
51 79 4 28 11 76 17 108 6 33 12 73 13 90 3 28 18 122 21 137 1 3 5 30 9 61 4
31 11 61 14 66 4 6 31 18 60 26 60 18 58 21 37 -73 -18 -78 -35 -156 -41 -190
-3 -14 -14 -69 -25 -122 -23 -110 -23 -125 5 -105 17 13 30 66 51 224 3 26 8
57 10 68 3 11 7 36 10 55 2 19 6 44 9 55 2 11 6 41 10 66 l7 46 58 10 58 9
-18 -76 c-10 -42 -20 -87 -23 -101 -21 -98 -57 -250 -72 -301 -6 -20 20 -15
52 10 17 13 23 32 28 82 8 76 17 155 21 190 2 14 7 61 10 105 4 44 11 85 16
91 4 5 28 11 52 12 l44 3 -24 -113 c-13 -62 -32 -155 -43 -207 -33 -153 -33
-141 0 -129 33 11 37 20 45 98 3 30 7 64 9 75 2 11 7 51 11 89 4 38 8 79 10
90 2 12 6 39 10 60 3 22 7 41 8 42 5 5 76 11 80 8 2 -3 0 -26 -5 -52 -5 -26
-11 -63 -14 -82 -3 -19 -7 -42 -9 -50 -3 -8 -7 -33 -11 -55 -3 -22 -12 -71
-19 -110 -8 -38 -12 -71 -11 -72 2 -2 17 2 34 8 30 10 32 14 33 62 1 29 2 70
4 92 13 200 18 251 22 258 2 4 27 7 55 7 48 0 50 -1 44 -24 -3 -12 -8 -41 -12
-62 -3 -21 -8 -42 -10 -45 -2 -3 -6 -19 -8 -35 -3 -16 -8 -40 -11 -54 -3 -14
-8 -38 -11 -55 -3 -16 -9 -48 -14 -69 -11 -49 -8 -55 25 -48 19 3 25 11 26 31
0 14 2 35 4 46 2 11 6 52 9 90 19 238 17 230 61 231 42 1 41 8 15 -150 -12
-67 -23 -134 -26 -151 -2 -16 -7 -42 -10 -58 -6 -31 -5 -31 31 -15 14 6 25 20
26 32 1 12 2 32 4 46 1 14 5 79 9 145 9 156 7 151 56 147 44 -5 44 -1 20 -127
-6 -27 -12 -68 -16 -90 -3 -22 -7 -47 -9 -55 -12 -42 -14 -80 -6 -80 5 0 21 4
34 9 23 9 25 14 27 108 1 54 4 121 5 148 2 28 4 58 4 68 1 13 10 17 47 17 25
0 43 -4 40 -9 -3 -5 -8 -26 -12 -47 -12 -87 -23 -148 -40 -242 -4 -20 -1 -22
22 -18 15 3 28 6 29 8 2 2 6 62 10 133 7 130 11 164 18 172 10 10 56 12 62 3
4 -6 2 -34 -4 -63 -6 -28 -13 -68 -16 -87 -3 -19 -11 -59 -17 -88 -13 -60 -8
-70 27 -54 24 11 25 16 26 94 1 46 2 97 4 113 1 17 3 44 4 60 1 29 3 30 46 30
43 0 45 -1 40 -25 -3 -14 -8 -38 -11 -55 -3 -16 -12 -65 -20 -108 -9 -43 -13
-81 -10 -84 3 -4 17 -1 31 5 22 10 25 18 26 69 1 64 6 185 8 194 1 7 91 6 91
-1 0 -3 -11 -54 -25 -115 -14 -60 -25 -112 -25 -116 0 -15 50 5 51 20 0 17 6
74 17 161 l7 55 38 3 c33 3 38 1 34 -15 -3 -10 -8 -31 -11 -48 -12 -61 -15
-71 -24 -113 -7 -27 -6 -44 0 -48 15 -9 26 7 32 46 3 19 8 45 10 57 9 42 20
118 18 124 -1 6 70 21 74 16 1 -1 -7 -36 -17 -77 -27 -110 -30 -130 -20 -130
22 0 27 18 57 184 5 27 14 34 49 38 22 2 30 -1 28 -12 -3 -23 -29 -123 -38
-144 -7 -16 -5 -17 16 -11 13 4 25 8 26 9 1 0 4 20 7 44 3 23 9 61 12 85 7 50
3 45 43 57 l32 9 -7 -37 c-4 -20 -12 -56 -19 -80 -7 -23 -10 -42 -5 -42 18 0
29 30 36 93 4 37 8 67 9 67 1 0 18 6 37 14 l34 15 -13 -62 c-7 -34 -13 -69
-13 -77 0 -23 33 30 37 59 2 14 5 35 7 46 3 11 5 25 5 30 1 6 14 16 31 22 28
11 30 10 25 -10 -11 -48 -13 -77 -7 -77 19 1 29 19 31 60 2 45 19 70 49 70 9
0 12 -9 9 -29 -9 -52 7 -45 23 11 10 34 22 54 33 56 11 2 17 -3 17 -14 0 -13
5 -11 21 10 11 14 24 26 29 26 18 0 -12 -56 -40 -75 -33 -22 -38 -35 -14 -35
9 0 14 -7 12 -17 -2 -11 -23 -23 -58 -34 l-55 -16 36 -7 c35 -7 36 -9 27 -34
-10 -26 -13 -27 -85 -26 -81 1 -86 -6 -16 -21 53 -12 61 -23 36 -54 -18 -22
-21 -22 -82 -11 -35 6 -65 9 -67 7 -3 -2 17 -12 43 -22 66 -24 71 -31 45 -58
l-23 -24 -81 29 c-45 16 -88 27 -96 26 -8 -2 20 -22 62 -46 42 -24 76 -47 76
-52 0 -5 -10 -16 -21 -24 -20 -14 -29 -11 -121 35 -55 28 -102 48 -105 45 -3
-2 37 -32 87 -66 l92 -62 -23 -23 c-21 -19 -26 -21 -40 -9 -8 8 -19 14 -24 14
-4 0 -45 25 -91 55 -81 53 -104 64 -104 47 0 -7 33 -33 153 -116 44 -31 46
-35 32 -50 -9 -9 -20 -16 -25 -16 -8 0 -84 45 -184 109 -28 17 -57 31 -65 31
-14 0 26 -31 164 -128 l47 -33 -21 -18 c-21 -19 -23 -18 -153 70 -73 48 -134
86 -137 84 -2 -3 -2 -6 0 -8 6 -4 130 -108 160 -135 14 -12 34 -29 45 -37 19
-14 19 -14 -1 -28 -11 -9 -24 -12 -30 -9 -5 3 -70 48 -143 100 -73 52 -135 92
-138 90 -2 -3 50 -52 116 -109 66 -57 120 -107 120 -110 0 -4 -11 -10 -25 -13
-21 -5 -46 10 -147 87 -124 95 -148 111 -148 104 0 -2 48 -46 108 -98 123
-108 124 -109 111 -126 -11 -12 -41 7 -226 144 -41 30 -77 53 -79 50 -3 -2 50
-53 116 -113 106 -95 119 -110 102 -117 -23 -10 -55 9 -224 135 -80 59 -137
94 -108 66 8 -8 69 -59 135 -113 66 -54 124 -101 129 -106 4 -4 -1 -12 -13
-18 -18 -10 -41 2 -188 101 -248 168 -251 168 -50 -3 78 -67 143 -125 145
-130 2 -5 -8 -11 -21 -14 -19 -5 -42 6 -108 53 -158 111 -282 193 -286 189 -2
-3 68 -63 156 -135 156 -127 160 -131 133 -140 -31 -10 -14 -20 -232 129 -185
125 -180 123 -180 111 0 -9 55 -54 190 -156 36 -27 67 -52 70 -56 3 -3 20 -17
39 -30 l34 -23 -36 -15 -37 -14 -92 63 c-51 34 -129 88 -173 119 -44 31 -89
57 -99 57 -17 0 -16 -3 6 -21 223 -183 297 -246 290 -249 -23 -13 -65 -16 -85
-6 -22 12 -258 164 -307 198 -24 17 -60 33 -60 27 0 -1 36 -31 81 -67 44 -35
93 -74 107 -87 15 -13 48 -39 75 -59 26 -21 47 -40 47 -44 0 -12 -81 -40 -93
-32 -7 4 -82 53 -167 108 -85 56 -165 107 -177 114 -54 28 -13 -13 137 -137
88 -74 160 -137 160 -142 0 -4 -13 -13 -30 -20 -28 -12 -37 -8 -219 104 -191
117 -241 144 -211 114 8 -8 49 -43 90 -78 81 -68 166 -140 212 -181 l29 -25
-33 -18 -34 -19 -120 68 c-65 38 -144 82 -174 98 -30 17 -68 39 -85 49 -35 21
-52 24 -33 5 7 -7 84 -68 171 -137 87 -68 160 -127 163 -131 2 -4 -10 -21 -27
-37 -27 -25 -34 -28 -55 -18 -13 6 -24 14 -24 19 0 4 -4 7 -9 7 -6 0 -96 52
-201 115 -105 63 -194 115 -197 115 -3 0 -52 -37 -108 -82 -115 -93 -111 -84
-79 -216 44 -177 159 -282 359 -328 109 -25 425 -26 534 -1 269 60 380 223
385 567 l1 75 90 -4 c50 -3 168 -5 263 -4 l172 0 1 -81 c1 -207 41 -329 138
-426 106 -105 235 -143 491 -144 298 -2 427 33 538 145 42 43 98 140 107 187
2 13 7 31 9 40 6 20 13 89 21 216 8 121 37 251 100 441 65 196 224 626 236
640 5 5 10 -15 10 -50 1 -33 3 -71 4 -85 1 -14 6 -122 10 -240 5 -177 10 -221
24 -250 49 -96 191 -96 242 0 17 31 18 53 13 240 -3 113 -7 225 -8 250 -7 110
-18 256 -21 272 -2 9 -7 48 -10 85 -4 37 -8 75 -10 83 -2 8 -7 40 -10 70 -3
30 -9 75 -14 100 -5 25 -15 79 -22 120 -7 41 -13 77 -14 80 -1 3 -5 25 -9 50
-5 25 -26 119 -48 210 -45 189 -43 181 -53 240 -14 94 -16 106 -26 150 -6 25
-12 54 -15 64 -14 68 -81 251 -126 341 -157 315 -403 533 -760 674 -70 27
-225 74 -278 85 -14 2 -59 11 -100 19 -71 15 -170 28 -305 43 -33 3 -154 8
-270 9 l-210 3 -55 37 c-101 69 -282 144 -445 186 -97 25 -103 26 -151 33 -22
3 -55 8 -74 11 -86 13 -113 16 -255 21 -82 3 -158 6 -167 8 -9 2 -18 3 -20 1z
m1533 -585 c137 -136 194 -217 239 -340 115 -310 -177 -938 -654 -1405 -109
-107 -131 -125 -228 -190 -75 -51 -210 -122 -298 -158 -102 -42 -257 -80 -380
-93 -178 -19 -437 6 -487 48 -25 21 -7 56 47 91 24 15 30 15 88 -3 271 -84
561 -53 827 89 145 78 260 165 406 311 171 171 319 364 443 580 21 36 42 72
47 80 34 54 84 168 106 240 28 93 39 269 21 338 -55 212 -124 329 -293 497
-100 100 -104 105 -45 60 36 -27 108 -92 161 -145z m-1944 -682 c148 -97 81
-328 -95 -331 -110 -1 -188 83 -180 194 10 138 160 213 275 137z"/>
</g>
</svg>
